<svg width="210" height="210" viewBox="0 0 210 210" fill="none" xmlns="http://www.w3.org/2000/svg">
<path d="M0 111.031C0 109.176 0.735111 107.412 2.20533 105.74C3.67556 104.068 5.32956 103.222 7.16733 103.204C8.15393 103.204 9.02446 103.654 9.77891 104.555C10.0884 104.003 10.5334 103.728 11.1137 103.728C11.3652 103.728 11.5877 103.801 11.7811 103.948C11.9746 104.095 12.0713 104.279 12.0713 104.499C12.0713 104.738 11.7134 106.208 10.9977 108.909C10.2819 111.61 9.91433 113.135 9.89498 113.484C9.89498 113.944 9.96269 114.247 10.0981 114.394C10.2335 114.541 10.4366 114.624 10.7075 114.642C10.8816 114.624 11.075 114.541 11.2878 114.394C11.6941 114.026 12.0906 113.145 12.4775 111.748C12.5936 111.381 12.6903 111.188 12.7677 111.169C12.8064 111.151 12.9031 111.142 13.0579 111.142H13.174C13.5415 111.142 13.7253 111.224 13.7253 111.39C13.7253 111.5 13.6769 111.748 13.5802 112.134C13.4835 112.52 13.29 113.016 12.9999 113.622C12.7097 114.229 12.4002 114.688 12.0713 115C11.8198 115.239 11.5103 115.432 11.1427 115.579C10.988 115.616 10.7558 115.634 10.4463 115.634C9.78859 115.634 9.23725 115.496 8.79232 115.221C8.34738 114.945 8.05721 114.66 7.92179 114.366L7.74769 113.953C7.72834 113.935 7.68965 113.944 7.63162 113.981C7.59293 114.017 7.55424 114.054 7.51555 114.091C6.37419 115.12 5.21349 115.634 4.03344 115.634C2.96946 115.634 2.03123 115.267 1.21874 114.532C0.406246 113.797 0 112.63 0 111.031ZM9.22758 106.319C9.22758 106.208 9.17922 106.006 9.08249 105.712C8.98577 105.418 8.7633 105.097 8.41509 104.748C8.06688 104.398 7.62194 104.215 7.08028 104.196C6.40321 104.196 5.75515 104.481 5.13611 105.051C4.51707 105.62 4.03344 106.364 3.68523 107.283C3.12422 108.735 2.72765 110.241 2.49551 111.803C2.49551 111.858 2.49551 111.959 2.49551 112.106C2.49551 112.253 2.48584 112.364 2.46649 112.437C2.46649 113.264 2.6406 113.834 2.98881 114.146C3.33702 114.458 3.75294 114.624 4.23656 114.642C4.97167 114.642 5.69711 114.339 6.41288 113.733C7.12864 113.126 7.55424 112.658 7.68965 112.327C7.72834 112.253 7.9895 111.27 8.47312 109.378C8.95675 107.485 9.20824 106.466 9.22758 106.319Z" fill="black"/>
<path d="M16.0467 107.393C16.1821 106.622 16.7044 105.731 17.6137 104.72C18.5229 103.709 19.6449 103.195 20.9797 103.177C21.6568 103.177 22.2758 103.342 22.8368 103.673C23.3978 104.003 23.8137 104.417 24.0846 104.913C24.8971 103.755 25.874 103.177 27.0153 103.177C27.7311 103.177 28.3501 103.379 28.8725 103.783C29.3948 104.187 29.6656 104.729 29.685 105.409C29.685 105.942 29.5495 106.374 29.2787 106.704C29.0079 107.035 28.7467 107.237 28.4952 107.311C28.2438 107.384 28.0213 107.421 27.8278 107.421C27.4603 107.421 27.1604 107.32 26.9283 107.118C26.6961 106.916 26.5801 106.649 26.5801 106.319C26.5801 105.473 27.0637 104.895 28.031 104.582C27.8182 104.343 27.4313 104.224 26.8703 104.224C26.6188 104.224 26.435 104.242 26.3189 104.279C25.5838 104.573 25.0421 105.179 24.6939 106.098C23.5332 110.159 22.9529 112.529 22.9529 113.209C22.9529 113.723 23.1076 114.091 23.4172 114.311C23.7267 114.532 24.0652 114.642 24.4328 114.642C25.1485 114.642 25.8546 114.339 26.5511 113.733C27.2475 113.126 27.7214 112.382 27.9729 111.5C28.031 111.316 28.089 111.215 28.147 111.197C28.2051 111.178 28.3598 111.16 28.6113 111.142H28.7274C29.0176 111.142 29.1626 111.215 29.1626 111.362C29.1626 111.381 29.1433 111.482 29.1046 111.665C28.7951 112.713 28.1954 113.641 27.3055 114.449C26.4156 115.258 25.3807 115.662 24.2006 115.662C22.8465 115.662 21.8212 115.083 21.1248 113.925C20.3316 115.065 19.4224 115.634 18.3971 115.634H18.223C17.2751 115.634 16.598 115.395 16.1918 114.918C15.7855 114.44 15.5728 113.935 15.5534 113.402C15.5534 112.814 15.7372 112.336 16.1047 111.969C16.4723 111.601 16.9076 111.417 17.4105 111.417C18.2424 111.417 18.6583 111.803 18.6583 112.575C18.6583 112.942 18.5422 113.264 18.3101 113.54C18.0779 113.815 17.8555 113.999 17.6427 114.091C17.4299 114.183 17.3041 114.229 17.2654 114.229L17.1784 114.256C17.1784 114.275 17.2364 114.311 17.3525 114.366C17.4686 114.422 17.6233 114.486 17.8168 114.559C18.0102 114.633 18.194 114.66 18.3681 114.642C19.0645 114.642 19.6642 114.229 20.1672 113.402C20.3413 113.108 20.5638 112.483 20.8346 111.528C21.1054 110.572 21.3763 109.58 21.6471 108.551C21.9179 107.522 22.0727 106.916 22.1114 106.732C22.2081 106.236 22.2565 105.878 22.2565 105.657C22.2565 105.143 22.1114 104.775 21.8212 104.555C21.531 104.334 21.2022 104.224 20.8346 104.224C20.0608 104.224 19.3354 104.518 18.6583 105.106C17.9812 105.694 17.5073 106.447 17.2364 107.366C17.1977 107.531 17.1494 107.623 17.0913 107.641C17.0333 107.66 16.8785 107.678 16.6271 107.697H16.2208C16.1047 107.586 16.0467 107.485 16.0467 107.393Z" fill="black"/>
<path d="M33.5174 97.0002C33.1481 97.0002 32.854 96.8833 32.6351 96.6494C32.4163 96.4155 32.3068 96.1297 32.3068 95.7919C32.3068 94.8694 32.6693 94.0704 33.3943 93.3948C34.1193 92.7192 35.0221 92.3814 36.1027 92.3814C37.3475 92.3814 38.3871 92.7451 39.2216 93.4727C40.056 94.2003 40.48 95.1423 40.4937 96.2986C40.4937 96.8573 40.3569 97.39 40.0833 97.8967C39.8098 98.4034 39.4815 98.8451 39.0985 99.2219C38.7154 99.5987 38.1683 100.079 37.457 100.664C36.9645 101.067 36.2806 101.665 35.4051 102.457L34.1945 103.548L35.7539 103.568C37.9015 103.568 39.0437 103.535 39.1805 103.47C39.2763 103.444 39.4404 102.866 39.673 101.736V101.678H40.4937V101.736C40.48 101.775 40.3911 102.366 40.227 103.509C40.0628 104.653 39.9602 105.25 39.9192 105.302V105.361H32.3068V104.757C32.3068 104.666 32.3479 104.568 32.4299 104.464C32.512 104.36 32.7172 104.133 33.0455 103.782C33.4422 103.367 33.7842 103.003 34.0714 102.691C34.1945 102.561 34.4271 102.321 34.769 101.97C35.111 101.619 35.3436 101.379 35.4667 101.249C35.5898 101.119 35.7881 100.904 36.0617 100.606C36.3353 100.307 36.5268 100.086 36.6362 99.943C36.7457 99.8001 36.903 99.6052 37.1082 99.3583C37.3133 99.1115 37.457 98.9036 37.539 98.7347C37.6211 98.5658 37.7237 98.3774 37.8468 98.1695C37.9699 97.9616 38.0588 97.7538 38.1136 97.5459C38.1683 97.338 38.2162 97.1431 38.2572 96.9612C38.2982 96.7793 38.3187 96.5649 38.3187 96.3181C38.3187 95.4996 38.0862 94.7915 37.6211 94.1938C37.156 93.5962 36.4926 93.2973 35.6308 93.2973C35.1794 93.2973 34.7827 93.4078 34.4407 93.6286C34.0988 93.8495 33.8594 94.0639 33.7226 94.2718C33.5858 94.4796 33.5174 94.6031 33.5174 94.6421C33.5174 94.655 33.5516 94.6615 33.62 94.6615C33.8662 94.6615 34.1193 94.7525 34.3792 94.9344C34.6391 95.1163 34.769 95.4151 34.769 95.8309C34.769 96.1557 34.6596 96.4285 34.4407 96.6494C34.2219 96.8703 33.9141 96.9872 33.5174 97.0002Z" fill="black"/>
<path d="M52.6088 108.827C52.6088 108.827 52.6088 108.707 52.6088 108.468C52.6088 108.229 52.7442 108.046 53.0151 107.917H61.6913V103.783L61.7203 99.6487C61.9138 99.4098 62.0976 99.2904 62.2717 99.2904C62.5232 99.2904 62.7166 99.4282 62.852 99.7038V107.917H71.4992C71.7894 108.064 71.9345 108.248 71.9345 108.468C71.9345 108.689 71.7894 108.873 71.4992 109.02H62.852V117.233C62.6973 117.49 62.5232 117.619 62.3297 117.619H62.2136C61.9815 117.619 61.8074 117.49 61.6913 117.233V109.02H53.0151C52.7442 108.891 52.6088 108.707 52.6088 108.468V108.827Z" fill="black"/>
<path d="M82.2648 97.5265C82.2648 97.3427 82.3035 97.1314 82.3808 96.8926C82.4582 96.6537 82.5743 96.5343 82.729 96.5343C82.7484 96.5343 83.4448 96.4883 84.8183 96.3965C86.1918 96.3046 86.8979 96.2495 86.9366 96.2311C87.1687 96.2311 87.2848 96.3138 87.2848 96.4791C87.2848 96.6445 86.9559 97.9583 86.2982 100.42C86.1434 101.045 85.979 101.688 85.8049 102.35C85.6308 103.011 85.4857 103.507 85.3696 103.838L85.2536 104.362C85.2536 104.417 85.3116 104.389 85.4277 104.279C86.3756 103.544 87.3525 103.177 88.3585 103.177C89.5578 103.177 90.5251 103.599 91.2602 104.444C91.9953 105.29 92.3725 106.355 92.3919 107.641C92.3919 109.681 91.6278 111.528 90.0995 113.181C88.5712 114.835 86.9269 115.662 85.1665 115.662C84.1993 115.662 83.3191 115.313 82.5259 114.614C81.7328 113.916 81.3265 112.786 81.3072 111.224V110.976C81.3072 110.591 81.3846 110.058 81.5393 109.378C81.6941 108.698 82.168 106.888 82.9612 103.948C83.9284 100.329 84.4121 98.4084 84.4121 98.1879C84.4121 97.9674 84.0445 97.8388 83.3094 97.8021C83.2127 97.8021 83.1353 97.8021 83.0773 97.8021H82.9322C82.7387 97.8021 82.613 97.8021 82.5549 97.8021C82.4969 97.8021 82.4292 97.7745 82.3518 97.7194C82.2744 97.6643 82.2454 97.6 82.2648 97.5265ZM89.8964 106.401V106.236C89.8964 104.876 89.3064 104.196 88.1263 104.196C87.7974 104.196 87.4589 104.27 87.1107 104.417C86.7625 104.564 86.4433 104.757 86.1531 104.996C85.8629 105.234 85.6115 105.455 85.3987 105.657C85.1859 105.859 85.0118 106.061 84.8763 106.263L84.7022 106.484L84.0929 108.854C83.6673 110.434 83.4545 111.555 83.4545 112.217C83.4545 113.099 83.6866 113.76 84.1509 114.201C84.4604 114.495 84.8473 114.642 85.3116 114.642C85.95 114.642 86.5981 114.348 87.2558 113.76C87.7394 113.337 88.1263 112.823 88.4165 112.217C88.7067 111.61 89.0259 110.646 89.3741 109.323C89.7223 108 89.8964 107.026 89.8964 106.401Z" fill="black"/>
<path d="M94.249 107.393C94.3844 106.622 94.9067 105.731 95.816 104.72C96.7252 103.709 97.8472 103.195 99.182 103.177C99.8591 103.177 100.478 103.342 101.039 103.673C101.6 104.003 102.016 104.417 102.287 104.913C103.099 103.755 104.076 103.177 105.218 103.177C105.933 103.177 106.552 103.379 107.075 103.783C107.597 104.187 107.868 104.729 107.887 105.409C107.887 105.942 107.752 106.374 107.481 106.704C107.21 107.035 106.949 107.237 106.698 107.311C106.446 107.384 106.224 107.421 106.03 107.421C105.663 107.421 105.363 107.32 105.131 107.118C104.898 106.916 104.782 106.649 104.782 106.319C104.782 105.473 105.266 104.895 106.233 104.582C106.02 104.343 105.634 104.224 105.073 104.224C104.821 104.224 104.637 104.242 104.521 104.279C103.786 104.573 103.244 105.179 102.896 106.098C101.736 110.159 101.155 112.529 101.155 113.209C101.155 113.723 101.31 114.091 101.619 114.311C101.929 114.532 102.268 114.642 102.635 114.642C103.351 114.642 104.057 114.339 104.753 113.733C105.45 113.126 105.924 112.382 106.175 111.5C106.233 111.316 106.291 111.215 106.349 111.197C106.407 111.178 106.562 111.16 106.814 111.142H106.93C107.22 111.142 107.365 111.215 107.365 111.362C107.365 111.381 107.346 111.482 107.307 111.665C106.997 112.713 106.398 113.641 105.508 114.449C104.618 115.258 103.583 115.662 102.403 115.662C101.049 115.662 100.024 115.083 99.3271 113.925C98.5339 115.065 97.6247 115.634 96.5994 115.634H96.4253C95.4774 115.634 94.8003 115.395 94.3941 114.918C93.9879 114.44 93.7751 113.935 93.7557 113.402C93.7557 112.814 93.9395 112.336 94.307 111.969C94.6746 111.601 95.1099 111.417 95.6128 111.417C96.4447 111.417 96.8606 111.803 96.8606 112.575C96.8606 112.942 96.7445 113.264 96.5124 113.54C96.2802 113.815 96.0578 113.999 95.845 114.091C95.6322 114.183 95.5064 114.229 95.4677 114.229L95.3807 114.256C95.3807 114.275 95.4387 114.311 95.5548 114.366C95.6709 114.422 95.8256 114.486 96.0191 114.559C96.2125 114.633 96.3963 114.66 96.5704 114.642C97.2668 114.642 97.8665 114.229 98.3695 113.402C98.5436 113.108 98.7661 112.483 99.0369 111.528C99.3077 110.572 99.5786 109.58 99.8494 108.551C100.12 107.522 100.275 106.916 100.314 106.732C100.41 106.236 100.459 105.878 100.459 105.657C100.459 105.143 100.314 104.775 100.023 104.555C99.7333 104.334 99.4045 104.224 99.0369 104.224C98.2631 104.224 97.5377 104.518 96.8606 105.106C96.1835 105.694 95.7096 106.447 95.4387 107.366C95.4 107.531 95.3517 107.623 95.2936 107.641C95.2356 107.66 95.0808 107.678 94.8294 107.697H94.4231C94.307 107.586 94.249 107.485 94.249 107.393Z" fill="black"/>
<path d="M117.55 108.827C117.55 108.827 117.55 108.707 117.55 108.468C117.55 108.229 117.686 108.046 117.956 107.917H126.633V103.783L126.662 99.6487C126.855 99.4098 127.039 99.2904 127.213 99.2904C127.464 99.2904 127.658 99.4282 127.793 99.7038V107.917H136.441C136.731 108.064 136.876 108.248 136.876 108.468C136.876 108.689 136.731 108.873 136.441 109.02H127.793V117.233C127.639 117.49 127.464 117.619 127.271 117.619H127.155C126.923 117.619 126.749 117.49 126.633 117.233V109.02H117.956C117.686 108.891 117.55 108.707 117.55 108.468V108.827Z" fill="black"/>
<path d="M146.074 110.976C146.074 108.974 146.906 107.173 148.57 105.574C150.234 103.976 152.033 103.177 153.967 103.177C155.05 103.177 155.902 103.397 156.521 103.838C157.14 104.279 157.459 104.858 157.478 105.574C157.478 106.107 157.294 106.557 156.927 106.925C156.559 107.292 156.095 107.485 155.534 107.504C155.167 107.504 154.876 107.412 154.664 107.228C154.451 107.044 154.344 106.769 154.344 106.401C154.344 106.034 154.451 105.721 154.664 105.464C154.876 105.207 155.089 105.014 155.302 104.885C155.515 104.757 155.65 104.702 155.708 104.72H155.737C155.737 104.683 155.679 104.628 155.563 104.555C155.447 104.481 155.244 104.408 154.954 104.334C154.664 104.261 154.335 104.224 153.967 104.224C153.387 104.224 152.835 104.352 152.313 104.61C151.907 104.775 151.491 105.06 151.065 105.464C150.214 106.273 149.595 107.412 149.208 108.882C148.821 110.352 148.618 111.417 148.599 112.079C148.599 112.924 148.85 113.558 149.353 113.981C149.779 114.422 150.34 114.642 151.036 114.642H151.152C153.319 114.642 155.108 113.861 156.521 112.299C156.695 112.116 156.811 112.024 156.869 112.024C156.946 112.024 157.072 112.106 157.246 112.272C157.42 112.437 157.517 112.566 157.536 112.658C157.556 112.749 157.469 112.887 157.275 113.071C157.082 113.255 156.801 113.512 156.434 113.843C156.066 114.173 155.631 114.449 155.128 114.67C154.625 114.89 154.006 115.12 153.271 115.359C152.536 115.597 151.762 115.699 150.949 115.662C149.498 115.662 148.328 115.221 147.438 114.339C146.548 113.457 146.094 112.336 146.074 110.976Z" fill="black"/>
<path d="M167.489 105.795C167.489 105.556 167.625 105.372 167.896 105.244H186.38C186.67 105.391 186.815 105.574 186.815 105.795C186.815 105.997 186.68 106.172 186.409 106.319L177.181 106.346H167.954C167.644 106.254 167.489 106.07 167.489 105.795ZM167.489 111.142C167.489 110.866 167.644 110.682 167.954 110.591H186.409C186.68 110.774 186.815 110.958 186.815 111.142C186.815 111.381 186.67 111.564 186.38 111.693H167.896C167.625 111.564 167.489 111.381 167.489 111.142Z" fill="black"/>
<path d="M199.438 99.2353C200.521 97.747 202.001 97.0028 203.877 97.0028C204.806 97.0028 205.734 97.2417 206.663 97.7194C207.592 98.1971 208.346 99.0423 208.926 100.255C209.642 101.78 210 103.875 210 106.539C210 109.387 209.584 111.564 208.752 113.071C208.365 113.843 207.833 114.458 207.156 114.918C206.479 115.377 205.889 115.662 205.386 115.772C204.883 115.882 204.39 115.947 203.906 115.965C203.403 115.965 202.9 115.91 202.397 115.8C201.894 115.689 201.304 115.395 200.627 114.918C199.95 114.44 199.418 113.824 199.031 113.071C198.2 111.564 197.784 109.387 197.784 106.539C197.784 103.342 198.335 100.907 199.438 99.2353ZM205.967 98.9045C205.386 98.3166 204.699 98.0226 203.906 98.0226C203.094 98.0226 202.397 98.3166 201.817 98.9045C201.333 99.3823 201.014 100.044 200.859 100.889C200.705 101.734 200.627 103.498 200.627 106.181C200.627 109.084 200.705 110.995 200.859 111.913C201.014 112.832 201.362 113.558 201.904 114.091C202.446 114.642 203.113 114.918 203.906 114.918C204.68 114.918 205.338 114.642 205.88 114.091C206.441 113.54 206.789 112.768 206.924 111.776C207.06 110.783 207.137 108.918 207.156 106.181C207.156 103.516 207.079 101.762 206.924 100.917C206.769 100.071 206.45 99.4006 205.967 98.9045Z" fill="black"/>
</svg>
