<svg width="210" height="210" viewBox="0 0 210 210" fill="none" xmlns="http://www.w3.org/2000/svg">
<path d="M5.41629 105.748C5.41629 105.492 5.55304 105.055 5.82654 104.435C6.10005 103.815 6.53765 103.168 7.13936 102.493C7.74107 101.818 8.41571 101.49 9.16328 101.508C9.91086 101.508 10.5126 101.718 10.9684 102.137C11.4242 102.557 11.6613 103.14 11.6795 103.888C11.643 104.234 11.6157 104.426 11.5975 104.462C11.5975 104.517 11.4516 104.936 11.1599 105.72C10.8681 106.504 10.5673 107.389 10.2573 108.373C9.94732 109.358 9.80146 110.142 9.81969 110.725C9.81969 111.51 9.94732 112.057 10.2026 112.367C10.4579 112.676 10.8408 112.841 11.3513 112.859C11.7707 112.859 12.1627 112.759 12.5274 112.558C12.892 112.357 13.1747 112.148 13.3752 111.929C13.5758 111.71 13.822 111.409 14.1137 111.026C14.1137 111.008 14.1593 110.826 14.2504 110.479C14.3416 110.133 14.4692 109.595 14.6333 108.866C14.7974 108.136 14.9707 107.462 15.153 106.842C15.8459 104.107 16.2288 102.675 16.3017 102.548C16.5387 102.055 16.9308 101.809 17.4778 101.809C17.7148 101.809 17.9063 101.873 18.0521 102.001C18.198 102.128 18.2983 102.238 18.353 102.329C18.4077 102.42 18.4259 102.502 18.4077 102.575C18.4077 102.812 17.961 104.727 17.0675 108.319C16.1741 111.911 15.6635 113.88 15.5359 114.226C15.0254 115.74 14.141 116.943 12.8829 117.837C11.6248 118.73 10.3667 119.186 9.10858 119.204C8.28807 119.204 7.56785 119.004 6.94791 118.602C6.32797 118.201 6.018 117.6 6.018 116.797C6.018 116.396 6.08181 116.059 6.20945 115.785C6.33708 115.512 6.5103 115.311 6.7291 115.184C6.94791 115.056 7.13024 114.965 7.27611 114.91C7.42198 114.855 7.57696 114.828 7.74107 114.828C8.54334 114.828 8.94448 115.211 8.94448 115.977C8.94448 116.341 8.83508 116.661 8.61628 116.934C8.39747 117.208 8.18779 117.39 7.98722 117.481C7.78665 117.572 7.66813 117.618 7.63166 117.618L7.54961 117.645C7.58608 117.736 7.7593 117.846 8.06927 117.973C8.37924 118.101 8.68921 118.165 8.99918 118.165H9.21798C9.52795 118.165 9.76499 118.147 9.92909 118.11C10.5308 117.946 11.0869 117.6 11.5975 117.071C12.108 116.542 12.5 115.977 12.7735 115.375C13.047 114.773 13.2567 114.263 13.4026 113.843C13.5484 113.424 13.6214 113.151 13.6214 113.023L13.4573 113.132C13.3479 113.205 13.1747 113.306 12.9376 113.433C12.7006 113.561 12.4636 113.67 12.2265 113.761C11.8618 113.853 11.5063 113.898 11.1599 113.898C10.3211 113.898 9.58265 113.698 8.94448 113.296C8.30631 112.895 7.88693 112.248 7.68637 111.355C7.66813 111.227 7.65902 110.944 7.65902 110.507C7.65902 109.467 7.9781 108.109 8.61628 106.431C9.25445 104.754 9.57354 103.687 9.57354 103.232C9.57354 103.213 9.57354 103.195 9.57354 103.177C9.57354 103.013 9.57354 102.903 9.57354 102.849C9.57354 102.794 9.53707 102.73 9.46414 102.657C9.3912 102.584 9.29092 102.548 9.16328 102.548H9.05388C8.63451 102.548 8.25161 102.721 7.90517 103.067C7.55873 103.414 7.28523 103.788 7.08466 104.189C6.88409 104.59 6.7291 104.973 6.6197 105.337C6.5103 105.702 6.43737 105.903 6.4009 105.939C6.36443 105.976 6.21857 105.994 5.9633 105.994H5.58039C5.47099 105.884 5.41629 105.802 5.41629 105.748Z" fill="black"/>
<path d="M27.6794 104.107C27.6794 103.87 27.8071 103.687 28.0623 103.56H45.4845C45.758 103.706 45.8947 103.888 45.8947 104.107C45.8947 104.307 45.7671 104.481 45.5118 104.626L36.8144 104.654H28.117C27.8253 104.563 27.6794 104.38 27.6794 104.107ZM27.6794 109.413C27.6794 109.139 27.8253 108.957 28.117 108.866H45.5118C45.7671 109.048 45.8947 109.23 45.8947 109.413C45.8947 109.65 45.758 109.832 45.4845 109.96H28.0623C27.8071 109.832 27.6794 109.65 27.6794 109.413Z" fill="black"/>
<path d="M56.069 109.303C56.069 107.462 56.7619 105.711 58.1477 104.052C59.5334 102.393 61.0924 101.554 62.8246 101.536C63.7545 101.536 64.575 101.983 65.2861 102.876C65.5778 102.329 65.9972 102.055 66.5442 102.055C66.7813 102.055 66.9909 102.128 67.1733 102.274C67.3556 102.42 67.4468 102.602 67.4468 102.821C67.4468 103.058 67.1095 104.517 66.4348 107.197C65.7602 109.878 65.4137 111.391 65.3955 111.737C65.3955 112.193 65.4593 112.494 65.587 112.64C65.7146 112.786 65.906 112.868 66.1613 112.886C66.3254 112.868 66.5077 112.786 66.7083 112.64C67.0912 112.275 67.465 111.4 67.8297 110.014C67.9391 109.65 68.0303 109.458 68.1032 109.44C68.1397 109.422 68.2308 109.413 68.3767 109.413H68.4861C68.8325 109.413 69.0057 109.495 69.0057 109.659C69.0057 109.768 68.9602 110.014 68.869 110.397C68.7778 110.78 68.5955 111.272 68.322 111.874C68.0485 112.476 67.7567 112.932 67.4468 113.242C67.2097 113.479 66.918 113.67 66.5716 113.816C66.4257 113.853 66.2069 113.871 65.9152 113.871C65.2952 113.871 64.7756 113.734 64.3562 113.461C63.9368 113.187 63.6633 112.904 63.5357 112.613L63.3716 112.202C63.3533 112.184 63.3169 112.193 63.2622 112.23C63.2257 112.266 63.1892 112.303 63.1528 112.339C62.077 113.36 60.983 113.871 59.8707 113.871C58.8679 113.871 57.9836 113.506 57.2178 112.777C56.452 112.047 56.069 110.89 56.069 109.303ZM64.7664 104.626C64.7664 104.517 64.7209 104.316 64.6297 104.025C64.5385 103.733 64.3288 103.414 64.0006 103.067C63.6724 102.721 63.2531 102.539 62.7425 102.52C62.1044 102.52 61.4935 102.803 60.9101 103.368C60.3266 103.934 59.8707 104.672 59.5425 105.584C59.0138 107.024 58.64 108.519 58.4212 110.069C58.4212 110.124 58.4212 110.224 58.4212 110.37C58.4212 110.516 58.4121 110.625 58.3938 110.698C58.3938 111.519 58.5579 112.084 58.8861 112.394C59.2143 112.704 59.6064 112.868 60.0622 112.886C60.7551 112.886 61.4388 112.585 62.1135 111.984C62.7881 111.382 63.1892 110.917 63.3169 110.589C63.3533 110.516 63.5995 109.54 64.0553 107.662C64.5112 105.784 64.7482 104.772 64.7664 104.626Z" fill="black"/>
<path d="M71.1938 105.693C71.3214 104.927 71.8137 104.043 72.6707 103.04C73.5277 102.037 74.5852 101.527 75.8433 101.508C76.4815 101.508 77.065 101.673 77.5937 102.001C78.1225 102.329 78.5145 102.739 78.7698 103.232C79.5356 102.083 80.4564 101.508 81.5322 101.508C82.2068 101.508 82.7903 101.709 83.2826 102.11C83.7749 102.511 84.0302 103.049 84.0484 103.724C84.0484 104.253 83.9208 104.681 83.6655 105.009C83.4102 105.337 83.1641 105.538 82.927 105.611C82.69 105.684 82.4803 105.72 82.298 105.72C81.9516 105.72 81.6689 105.62 81.4501 105.42C81.2313 105.219 81.1219 104.955 81.1219 104.626C81.1219 103.788 81.5778 103.213 82.4894 102.903C82.2889 102.666 81.9242 102.548 81.3954 102.548C81.1584 102.548 80.9852 102.566 80.8758 102.602C80.1829 102.894 79.6724 103.496 79.3442 104.408C78.2502 108.437 77.7031 110.789 77.7031 111.464C77.7031 111.974 77.849 112.339 78.1407 112.558C78.4325 112.777 78.7516 112.886 79.098 112.886C79.7727 112.886 80.4382 112.585 81.0946 111.984C81.751 111.382 82.1977 110.643 82.4347 109.768C82.4894 109.586 82.5441 109.486 82.5988 109.467C82.6535 109.449 82.7994 109.431 83.0364 109.413H83.1459C83.4194 109.413 83.5561 109.486 83.5561 109.631C83.5561 109.65 83.5379 109.75 83.5014 109.932C83.2097 110.972 82.6444 111.892 81.8057 112.695C80.9669 113.497 79.9914 113.898 78.8792 113.898C77.6029 113.898 76.6365 113.324 75.9801 112.175C75.2325 113.306 74.3755 113.871 73.4091 113.871H73.245C72.3516 113.871 71.7134 113.634 71.3305 113.16C70.9476 112.686 70.747 112.184 70.7288 111.655C70.7288 111.072 70.902 110.598 71.2485 110.233C71.5949 109.869 72.0052 109.686 72.4792 109.686C73.2633 109.686 73.6553 110.069 73.6553 110.835C73.6553 111.2 73.5459 111.519 73.3271 111.792C73.1083 112.066 72.8986 112.248 72.698 112.339C72.4975 112.43 72.379 112.476 72.3425 112.476L72.2604 112.503C72.2604 112.521 72.3151 112.558 72.4245 112.613C72.5339 112.667 72.6798 112.731 72.8621 112.804C73.0445 112.877 73.2177 112.904 73.3818 112.886C74.0382 112.886 74.6034 112.476 75.0775 111.655C75.2416 111.364 75.4513 110.744 75.7066 109.796C75.9618 108.847 76.2171 107.863 76.4724 106.842C76.7276 105.821 76.8735 105.219 76.91 105.037C77.0012 104.544 77.0467 104.189 77.0467 103.97C77.0467 103.459 76.91 103.095 76.6365 102.876C76.363 102.657 76.053 102.548 75.7066 102.548C74.9772 102.548 74.2935 102.839 73.6553 103.423C73.0171 104.006 72.5704 104.754 72.3151 105.666C72.2787 105.83 72.2331 105.921 72.1784 105.939C72.1237 105.957 71.9778 105.976 71.7408 105.994H71.3579C71.2485 105.884 71.1938 105.784 71.1938 105.693Z" fill="black"/>
<path d="M87.6607 95.3794C87.3126 95.3794 87.0354 95.2634 86.8291 95.0313C86.6228 94.7992 86.5196 94.5156 86.5196 94.1803C86.5196 93.2649 86.8613 92.472 87.5446 91.8016C88.228 91.1311 89.0789 90.7959 90.0975 90.7959C91.2707 90.7959 92.2506 91.1569 93.0371 91.8789C93.8235 92.6009 94.2232 93.5357 94.2361 94.6832C94.2361 95.2376 94.1072 95.7662 93.8493 96.269C93.5915 96.7718 93.282 97.2102 92.921 97.5841C92.56 97.958 92.0443 98.435 91.3739 99.0152C90.9097 99.4149 90.2651 100.008 89.4399 100.794L88.2989 101.877L89.7687 101.897C91.7929 101.897 92.8695 101.865 92.9984 101.8C93.0886 101.774 93.2434 101.201 93.4625 100.079V100.021H94.2361V100.079C94.2232 100.118 94.1394 100.704 93.9847 101.839C93.83 102.973 93.7333 103.566 93.6946 103.618V103.676H86.5196V103.077C86.5196 102.986 86.5583 102.89 86.6357 102.786C86.713 102.683 86.9064 102.458 87.2159 102.11C87.5898 101.697 87.9121 101.336 88.1828 101.027C88.2989 100.898 88.5181 100.659 88.8404 100.311C89.1627 99.9629 89.3819 99.7243 89.4979 99.5954C89.614 99.4665 89.8009 99.2538 90.0588 98.9572C90.3166 98.6607 90.4971 98.4415 90.6003 98.2997C90.7034 98.1578 90.8517 97.9644 91.0451 97.7195C91.2385 97.4745 91.3739 97.2682 91.4512 97.1006C91.5286 96.933 91.6253 96.7461 91.7413 96.5398C91.8574 96.3335 91.9412 96.1272 91.9927 95.9209C92.0443 95.7146 92.0894 95.5212 92.1281 95.3407C92.1668 95.1602 92.1861 94.9475 92.1861 94.7025C92.1861 93.8902 91.9669 93.1876 91.5286 92.5945C91.0902 92.0014 90.4649 91.7049 89.6526 91.7049C89.2272 91.7049 88.8533 91.8145 88.531 92.0336C88.2086 92.2528 87.983 92.4656 87.8541 92.6718C87.7251 92.8781 87.6607 93.0006 87.6607 93.0393C87.6607 93.0522 87.6929 93.0586 87.7574 93.0586C87.9894 93.0586 88.228 93.1489 88.4729 93.3294C88.7179 93.5099 88.8404 93.8064 88.8404 94.219C88.8404 94.5413 88.7372 94.8121 88.531 95.0313C88.3247 95.2505 88.0346 95.3665 87.6607 95.3794Z" fill="black"/>
<path d="M105.655 107.115C105.655 107.115 105.655 106.997 105.655 106.76C105.655 106.523 105.783 106.34 106.038 106.213H114.216V102.11L114.243 98.0076C114.425 97.7706 114.599 97.652 114.763 97.652C115 97.652 115.182 97.7888 115.31 98.0623V106.213H123.46C123.734 106.359 123.87 106.541 123.87 106.76C123.87 106.979 123.734 107.161 123.46 107.307H115.31V115.457C115.164 115.712 115 115.84 114.818 115.84H114.708C114.489 115.84 114.325 115.712 114.216 115.457V107.307H106.038C105.783 107.179 105.655 106.997 105.655 106.76V107.115Z" fill="black"/>
<path d="M133.635 95.9016C133.635 95.7193 133.671 95.5096 133.744 95.2726C133.817 95.0355 133.926 94.917 134.072 94.917C134.09 94.917 134.747 94.8714 136.041 94.7803C137.336 94.6891 138.001 94.6344 138.038 94.6162C138.257 94.6162 138.366 94.6982 138.366 94.8623C138.366 95.0264 138.056 96.3301 137.436 98.7734C137.29 99.3934 137.135 100.032 136.971 100.688C136.807 101.344 136.67 101.837 136.561 102.165L136.452 102.685C136.452 102.739 136.506 102.712 136.616 102.602C137.509 101.873 138.43 101.508 139.378 101.508C140.509 101.508 141.42 101.928 142.113 102.767C142.806 103.605 143.162 104.663 143.18 105.939C143.18 107.963 142.46 109.796 141.019 111.437C139.579 113.078 138.029 113.898 136.37 113.898C135.458 113.898 134.628 113.552 133.881 112.859C133.133 112.166 132.75 111.045 132.732 109.495V109.249C132.732 108.866 132.805 108.337 132.951 107.662C133.097 106.988 133.543 105.192 134.291 102.274C135.203 98.6822 135.658 96.7768 135.658 96.558C135.658 96.3392 135.312 96.2116 134.619 96.1751C134.528 96.1751 134.455 96.1751 134.4 96.1751H134.264C134.081 96.1751 133.963 96.1751 133.908 96.1751C133.853 96.1751 133.789 96.1478 133.717 96.0931C133.644 96.0384 133.616 95.9746 133.635 95.9016ZM140.828 104.708V104.544C140.828 103.195 140.272 102.52 139.159 102.52C138.849 102.52 138.53 102.593 138.202 102.739C137.874 102.885 137.573 103.077 137.299 103.314C137.026 103.551 136.789 103.769 136.588 103.97C136.388 104.171 136.224 104.371 136.096 104.572L135.932 104.79L135.358 107.143C134.956 108.711 134.756 109.823 134.756 110.479C134.756 111.355 134.975 112.011 135.412 112.449C135.704 112.74 136.069 112.886 136.506 112.886C137.108 112.886 137.719 112.594 138.339 112.011C138.795 111.592 139.159 111.081 139.433 110.479C139.706 109.878 140.007 108.92 140.335 107.608C140.664 106.295 140.828 105.328 140.828 104.708Z" fill="black"/>
<path d="M144.93 105.693C145.058 104.927 145.55 104.043 146.407 103.04C147.264 102.037 148.322 101.527 149.58 101.508C150.218 101.508 150.801 101.673 151.33 102.001C151.859 102.329 152.251 102.739 152.506 103.232C153.272 102.083 154.193 101.508 155.269 101.508C155.943 101.508 156.527 101.709 157.019 102.11C157.511 102.511 157.767 103.049 157.785 103.724C157.785 104.253 157.657 104.681 157.402 105.009C157.147 105.337 156.9 105.538 156.663 105.611C156.426 105.684 156.217 105.72 156.034 105.72C155.688 105.72 155.405 105.62 155.187 105.42C154.968 105.219 154.858 104.955 154.858 104.626C154.858 103.788 155.314 103.213 156.226 102.903C156.025 102.666 155.661 102.548 155.132 102.548C154.895 102.548 154.722 102.566 154.612 102.602C153.919 102.894 153.409 103.496 153.081 104.408C151.987 108.437 151.44 110.789 151.44 111.464C151.44 111.974 151.585 112.339 151.877 112.558C152.169 112.777 152.488 112.886 152.834 112.886C153.509 112.886 154.175 112.585 154.831 111.984C155.487 111.382 155.934 110.643 156.171 109.768C156.226 109.586 156.281 109.486 156.335 109.467C156.39 109.449 156.536 109.431 156.773 109.413H156.882C157.156 109.413 157.293 109.486 157.293 109.631C157.293 109.65 157.274 109.75 157.238 109.932C156.946 110.972 156.381 111.892 155.542 112.695C154.703 113.497 153.728 113.898 152.616 113.898C151.339 113.898 150.373 113.324 149.716 112.175C148.969 113.306 148.112 113.871 147.146 113.871H146.981C146.088 113.871 145.45 113.634 145.067 113.16C144.684 112.686 144.483 112.184 144.465 111.655C144.465 111.072 144.638 110.598 144.985 110.233C145.331 109.869 145.742 109.686 146.216 109.686C147 109.686 147.392 110.069 147.392 110.835C147.392 111.2 147.282 111.519 147.064 111.792C146.845 112.066 146.635 112.248 146.434 112.339C146.234 112.43 146.115 112.476 146.079 112.476L145.997 112.503C145.997 112.521 146.052 112.558 146.161 112.613C146.27 112.667 146.416 112.731 146.599 112.804C146.781 112.877 146.954 112.904 147.118 112.886C147.775 112.886 148.34 112.476 148.814 111.655C148.978 111.364 149.188 110.744 149.443 109.796C149.698 108.847 149.954 107.863 150.209 106.842C150.464 105.821 150.61 105.219 150.646 105.037C150.738 104.544 150.783 104.189 150.783 103.97C150.783 103.459 150.646 103.095 150.373 102.876C150.099 102.657 149.789 102.548 149.443 102.548C148.714 102.548 148.03 102.839 147.392 103.423C146.754 104.006 146.307 104.754 146.052 105.666C146.015 105.83 145.969 105.921 145.915 105.939C145.86 105.957 145.714 105.976 145.477 105.994H145.094C144.985 105.884 144.93 105.784 144.93 105.693Z" fill="black"/>
<path d="M166.892 107.115C166.892 107.115 166.892 106.997 166.892 106.76C166.892 106.523 167.02 106.34 167.275 106.213H175.453V102.11L175.48 98.0076C175.663 97.7706 175.836 97.652 176 97.652C176.237 97.652 176.42 97.7888 176.547 98.0623V106.213H184.698C184.971 106.359 185.108 106.541 185.108 106.76C185.108 106.979 184.971 107.161 184.698 107.307H176.547V115.457C176.401 115.712 176.237 115.84 176.055 115.84H175.945C175.727 115.84 175.563 115.712 175.453 115.457V107.307H167.275C167.02 107.179 166.892 106.997 166.892 106.76V107.115Z" fill="black"/>
<path d="M193.778 109.249C193.778 107.261 194.562 105.474 196.13 103.888C197.698 102.302 199.394 101.508 201.217 101.508C202.238 101.508 203.04 101.727 203.624 102.165C204.207 102.602 204.508 103.177 204.527 103.888C204.527 104.417 204.353 104.863 204.007 105.228C203.66 105.593 203.223 105.784 202.694 105.802C202.348 105.802 202.074 105.711 201.874 105.529C201.673 105.347 201.573 105.073 201.573 104.708C201.573 104.344 201.673 104.034 201.874 103.779C202.074 103.523 202.275 103.332 202.475 103.204C202.676 103.077 202.803 103.022 202.858 103.04H202.885C202.885 103.004 202.831 102.949 202.721 102.876C202.612 102.803 202.421 102.73 202.147 102.657C201.874 102.584 201.564 102.548 201.217 102.548C200.67 102.548 200.15 102.675 199.658 102.931C199.275 103.095 198.883 103.377 198.482 103.779C197.68 104.581 197.096 105.711 196.732 107.17C196.367 108.629 196.176 109.686 196.157 110.343C196.157 111.181 196.394 111.81 196.868 112.23C197.27 112.667 197.798 112.886 198.455 112.886H198.564C200.606 112.886 202.293 112.111 203.624 110.561C203.788 110.379 203.897 110.288 203.952 110.288C204.025 110.288 204.144 110.37 204.308 110.534C204.472 110.698 204.563 110.826 204.581 110.917C204.599 111.008 204.517 111.145 204.335 111.327C204.153 111.51 203.888 111.765 203.542 112.093C203.195 112.421 202.785 112.695 202.311 112.914C201.837 113.132 201.254 113.36 200.561 113.597C199.868 113.834 199.138 113.935 198.373 113.898C197.005 113.898 195.902 113.461 195.063 112.585C194.225 111.71 193.796 110.598 193.778 109.249Z" fill="black"/>
</svg>
