<svg width="210" height="210" viewBox="0 0 210 210" fill="none" xmlns="http://www.w3.org/2000/svg">
<path d="M117.5 104.855C117.5 118.285 113.276 125 104.827 125C100.757 125 97.6843 123.283 95.6106 119.848C93.5369 116.413 92.5 111.416 92.5 104.855C92.5 98.4298 93.5369 93.5191 95.6106 90.123C97.6843 86.7077 100.833 85 105.058 85C109.128 85 112.22 86.6884 114.332 90.0651C116.444 93.4226 117.5 98.3526 117.5 104.855ZM112.2 104.855C112.2 98.6421 111.615 94.1655 110.444 91.4255C109.272 88.6855 107.4 87.3155 104.827 87.3155C102.331 87.3155 100.536 88.6083 99.4412 91.1939C98.3468 93.7795 97.7995 98.3333 97.7995 104.855C97.7995 111.416 98.3564 116.037 99.47 118.719C100.584 121.382 102.369 122.713 104.827 122.713C107.362 122.713 109.224 121.315 110.415 118.517C111.605 115.699 112.2 111.146 112.2 104.855Z" fill="black"/>
</svg>
