<svg width="210" height="210" viewBox="0 0 210 210" fill="none" xmlns="http://www.w3.org/2000/svg">
<path d="M117.5 112.326C117.5 116.376 116.49 119.506 114.471 121.715C112.471 123.905 109.576 125 105.786 125C101.481 125 98.1857 123.295 95.9 119.884C93.6333 116.473 92.5 111.57 92.5 105.174C92.5 100.988 93.1 97.374 94.3 94.3314C95.5 91.2888 97.1762 88.9729 99.3286 87.3837C101.5 85.7946 104.005 85 106.843 85C109.624 85 112.395 85.3391 115.157 86.0174V92.7326H113.271L112.271 88.75C111.643 88.4012 110.795 88.1008 109.729 87.8488C108.662 87.5775 107.7 87.4419 106.843 87.4419C104.062 87.4419 101.89 88.8178 100.329 91.5698C98.7857 94.3023 97.9381 98.3043 97.7857 103.576C100.89 101.909 104.005 101.076 107.129 101.076C110.5 101.076 113.071 102.045 114.843 103.983C116.614 105.901 117.5 108.682 117.5 112.326ZM105.671 122.703C107.976 122.703 109.643 121.948 110.671 120.436C111.7 118.905 112.214 116.386 112.214 112.878C112.214 109.7 111.719 107.403 110.729 105.988C109.757 104.574 108.205 103.866 106.071 103.866C103.462 103.866 100.69 104.351 97.7571 105.32C97.7571 111.231 98.4143 115.61 99.7286 118.459C101.043 121.289 103.024 122.703 105.671 122.703Z" fill="black"/>
</svg>
