<svg width="50" height="50" viewBox="0 0 50 50" fill="none" xmlns="http://www.w3.org/2000/svg">
<path d="M36.3191 15.0724C36.3191 17.1949 35.8007 18.999 34.7638 20.4848C33.7462 21.9513 32.3637 23.0704 30.6164 23.8423C32.8053 24.6527 34.495 25.9262 35.6855 27.6628C36.8952 29.3801 37.5 31.4737 37.5 33.9436C37.5 37.6097 36.4727 40.369 34.4182 42.2214C32.3637 44.0738 29.1667 45 24.8272 45C16.6091 45 12.5 41.3145 12.5 33.9436C12.5 31.3772 13.1144 29.2547 14.3433 27.576C15.5722 25.878 17.2331 24.6334 19.326 23.8423C17.6555 23.0704 16.2922 21.9513 15.2362 20.4848C14.1993 19.0183 13.6809 17.2142 13.6809 15.0724C13.6809 11.8693 14.6505 9.38977 16.5899 7.63386C18.5484 5.87795 21.371 5 25.0576 5C28.629 5 31.394 5.87795 33.3525 7.63386C35.3303 9.37048 36.3191 11.85 36.3191 15.0724ZM32.3157 33.9436C32.3157 30.8562 31.7108 28.6179 30.5012 27.2287C29.3107 25.8394 27.4194 25.1447 24.8272 25.1447C22.2926 25.1447 20.4685 25.8104 19.3548 27.1418C18.2412 28.4539 17.6843 30.7212 17.6843 33.9436C17.6843 37.2045 18.2508 39.4814 19.3836 40.7742C20.5165 42.0671 22.331 42.7135 24.8272 42.7135C27.381 42.7135 29.2627 42.0478 30.4723 40.7164C31.7012 39.3657 32.3157 37.1081 32.3157 33.9436ZM31.1348 15.0724C31.1348 12.4096 30.6164 10.451 29.5795 9.19682C28.5426 7.9426 26.9777 7.31549 24.8848 7.31549C22.8495 7.31549 21.3326 7.9233 20.3341 9.13893C19.3548 10.3546 18.8652 12.3324 18.8652 15.0724C18.8652 17.7545 19.3452 19.684 20.3053 20.8611C21.2654 22.0188 22.7919 22.5977 24.8848 22.5977C27.0353 22.5977 28.6098 22.0092 29.6083 20.8321C30.626 19.6358 31.1348 17.7159 31.1348 15.0724Z" fill="black"/>
</svg>
