<svg width="120" height="120" viewBox="0 0 120 120" fill="none" xmlns="http://www.w3.org/2000/svg">
<path d="M58.9782 55.5981C64.04 55.5981 67.8036 56.5986 70.2691 58.5996C72.7564 60.6005 74 63.6547 74 67.7619C74 72.0167 72.6582 75.2919 69.9745 77.5878C67.2909 79.8626 63.4509 81 58.4545 81C54.3091 81 50.6109 80.5471 47.36 79.6414L47 70.7318H49.16L50.6327 76.6716C51.5927 77.1771 52.7382 77.5878 54.0691 77.9037C55.4218 78.2197 56.7091 78.3777 57.9309 78.3777C61.3782 78.3777 63.9091 77.5983 65.5236 76.0397C67.16 74.46 67.9782 71.806 67.9782 68.0779C67.9782 65.4661 67.6291 63.4967 66.9309 62.1697C66.2327 60.8217 65.12 59.8317 63.5927 59.1999C62.0655 58.568 60.0145 58.252 57.44 58.252C55.4545 58.252 53.5127 58.5048 51.6145 59.0103H48.4727V38H70.7273V42.8339H51.4182V56.3564C53.7745 55.8508 56.2945 55.5981 58.9782 55.5981Z" fill="black"/>
</svg>
