<svg width="133" height="50" viewBox="0 0 133 50" fill="none" xmlns="http://www.w3.org/2000/svg">
<path d="M17.1184 31.0521C17.1184 33.557 16.3236 35.4536 14.7341 36.7418C13.1625 38.0301 10.8318 38.6742 7.74212 38.6742C6.49195 38.6742 5.10783 38.54 3.58977 38.2716C2.08957 38.0211 0.910837 37.7348 0.0535787 37.4128V31.2131H1.2591L2.57178 34.7289C3.91124 35.9456 5.65255 36.5539 7.79569 36.5539C11.2604 36.5539 12.9928 35.0689 12.9928 32.0988C12.9928 29.9159 11.6266 28.3593 8.89406 27.4289L6.50981 26.6506C4.70599 26.0601 3.39331 25.4607 2.57178 24.8524C1.75024 24.2441 1.11622 23.5015 0.669733 22.6248C0.223244 21.7302 0 20.6566 0 19.4042C0 17.1855 0.750101 15.441 2.2503 14.1707C3.76837 12.8824 5.81328 12.2383 8.38506 12.2383C10.2246 12.2383 12.5285 12.5157 15.2967 13.0703V18.5722H14.0376L12.9125 15.6468C11.9659 14.8059 10.4746 14.3854 8.43864 14.3854C6.99201 14.3854 5.88472 14.7432 5.11676 15.4589C4.36666 16.1746 3.99161 17.1408 3.99161 18.3575C3.99161 19.3773 4.33094 20.2362 5.0096 20.934C5.70613 21.6318 6.75091 22.2133 8.14395 22.6785C10.7693 23.5731 12.4838 24.2262 13.2875 24.6377C14.0912 25.0492 14.7698 25.5591 15.3235 26.1675C15.895 26.7579 16.3326 27.4378 16.6362 28.2072C16.9576 28.9766 17.1184 29.9249 17.1184 31.0521Z" fill="black"/>
<path d="M26.0928 25.4428V25.9259C26.0928 28.3951 26.3607 30.3185 26.8965 31.6962C27.4501 33.056 28.2895 34.0938 29.4147 34.8094C30.5577 35.5251 32.049 35.883 33.8885 35.883C34.8529 35.883 35.9959 35.8025 37.3175 35.6414C38.6391 35.4804 39.7286 35.3015 40.5858 35.1047V36.6076C39.7286 37.1623 38.5588 37.6454 37.0764 38.0569C35.6119 38.4684 34.1117 38.6742 32.5758 38.6742C28.6646 38.6742 25.7981 37.6185 23.9764 35.5072C22.1726 33.396 21.2707 30.0054 21.2707 25.3355C21.2707 20.934 22.1905 17.6507 24.03 15.4858C25.8696 13.3208 28.4949 12.2383 31.9061 12.2383C38.3534 12.2383 41.577 15.9062 41.577 23.2421V25.4428H26.0928ZM31.9061 14.3854C30.0487 14.3854 28.6199 15.1369 27.6198 16.6398C26.6375 18.1428 26.1464 20.3614 26.1464 23.2958H36.9157C36.9157 20.093 36.5049 17.8118 35.6834 16.452C34.8618 15.0743 33.6027 14.3854 31.9061 14.3854Z" fill="black"/>
<path d="M52.1856 14.949C53.5608 14.1617 55.0253 13.5176 56.5791 13.0166C58.1328 12.4978 59.4277 12.2383 60.4635 12.2383C62.6424 12.2383 64.2855 12.8735 65.3927 14.1439C66.5 15.4142 67.0537 17.2571 67.0537 19.6726V36.2587L70.1077 36.9297V38.1374H59.258V36.9297L62.6067 36.2587V20.1557C62.6067 18.6706 62.2405 17.5076 61.5083 16.6667C60.7939 15.8078 59.6777 15.3784 58.1596 15.3784C56.5523 15.3784 54.5788 15.6379 52.2392 16.1567V36.2587L55.6414 36.9297V38.1374H44.765V36.9297L47.7922 36.2587V14.788L44.765 14.117V12.9093H51.9445L52.1856 14.949Z" fill="black"/>
<path d="M78.5195 24.8792C78.5195 29.5312 78.8321 33.2439 79.4571 36.0172C80.0822 38.7726 81.0645 41.0986 82.404 42.9952C83.7434 44.8918 85.4222 46.4215 87.4404 47.5845V49.839C83.9042 47.9603 81.1359 45.9027 79.1357 43.6661C77.1533 41.4475 75.6888 38.8352 74.7422 35.8293C73.8135 32.8055 73.3492 29.1555 73.3492 24.8792C73.3492 20.6209 73.8135 16.9977 74.7422 14.0097C75.6709 11.0038 77.1265 8.39148 79.1089 6.17284C81.0913 3.9542 83.8684 1.89658 87.4404 0V2.25443C85.2615 3.50689 83.5291 5.11719 82.2432 7.08535C80.9573 9.03561 80.0108 11.3169 79.4036 13.9291C78.8142 16.5414 78.5195 20.1914 78.5195 24.8792Z" fill="black"/>
<path d="M94.5395 50C93.1465 50 91.7713 49.839 90.414 49.5169V44.0687H91.6731L92.5571 46.6452C93.1108 47.0567 93.8787 47.2625 94.861 47.2625C95.7897 47.2625 96.647 46.9941 97.4328 46.4573C98.2186 45.9206 98.933 45.1244 99.5759 44.0687C100.237 43.0131 101.058 41.1254 102.041 38.4058L92.45 14.788L89.8782 14.117V12.9093H101.558V14.117L97.5935 14.8417L104.398 32.4745L110.988 14.788L107.05 14.117V12.9093H116.426V14.117L113.801 14.6806L103.969 39.7209C102.809 42.6731 101.799 44.7933 100.942 46.0816C100.085 47.3698 99.1384 48.345 98.1025 49.007C97.0667 49.669 95.879 50 94.5395 50Z" fill="black"/>
<path d="M118.409 49.839V47.5845C120.427 46.4215 122.106 44.8828 123.445 42.9683C124.785 41.0717 125.767 38.7457 126.392 35.9903C127.017 33.217 127.33 29.5133 127.33 24.8792C127.33 20.1914 127.026 16.5414 126.419 13.9291C125.829 11.3169 124.892 9.03561 123.606 7.08535C122.32 5.11719 120.588 3.50689 118.409 2.25443V0C121.981 1.91447 124.758 3.98103 126.74 6.19968C128.723 8.40043 130.178 11.0038 131.107 14.0097C132.036 16.9977 132.5 20.6209 132.5 24.8792C132.5 29.1376 132.036 32.7787 131.107 35.8025C130.178 38.8084 128.723 41.4206 126.74 43.6393C124.758 45.8579 121.981 47.9245 118.409 49.839Z" fill="black"/>
</svg>
