<svg width="147" height="93" viewBox="0 0 147 93" fill="none" xmlns="http://www.w3.org/2000/svg">
<path d="M91.8047 31.7578V33H81.4688V31.7578L85.0312 31.125L95.7422 1.3125H100.195L111.328 31.125L115.312 31.7578V33H102.023V31.7578L106.242 31.125L103.125 22.0547H90.75L87.5859 31.125L91.8047 31.7578ZM96.8438 4.6875L91.4531 19.9453H102.398L96.8438 4.6875Z" fill="black"/>
<path d="M125.484 31.75L129.766 32.1719V33H118.5V32.1719L122.797 31.75V14.6562L118.562 16.1719V15.3438L124.672 11.875H125.484V31.75Z" fill="black"/>
<path d="M91.8047 86.7578V88H81.4688V86.7578L85.0312 86.125L95.7422 56.3125H100.195L111.328 86.125L115.312 86.7578V88H102.023V86.7578L106.242 86.125L103.125 77.0547H90.75L87.5859 86.125L91.8047 86.7578ZM96.8438 59.6875L91.4531 74.9453H102.398L96.8438 59.6875Z" fill="black"/>
<path d="M129.922 88H117.094V85.7031L120 83.0625C121.865 81.4271 123.234 80.1042 124.109 79.0938C124.984 78.0833 125.609 77.0417 125.984 75.9688C126.37 74.8958 126.562 73.6667 126.562 72.2812C126.562 70.9271 126.255 69.8958 125.641 69.1875C125.026 68.4792 124.021 68.125 122.625 68.125C122.073 68.125 121.505 68.2031 120.922 68.3594C120.339 68.5052 119.823 68.7031 119.375 68.9531L118.828 71.5156H117.797V67.4844C119.693 67.0365 121.302 66.8125 122.625 66.8125C124.917 66.8125 126.635 67.2917 127.781 68.25C128.938 69.1979 129.516 70.5417 129.516 72.2812C129.516 73.4479 129.286 74.5521 128.828 75.5938C128.38 76.625 127.688 77.6562 126.75 78.6875C125.812 79.7083 124.26 81.1406 122.094 82.9844C121.167 83.776 120.182 84.6458 119.141 85.5938H129.922V88Z" fill="black"/>
<path d="M135 93V88.7932C136.719 86.623 138.148 83.7517 139.289 80.1793C140.43 76.6403 141.266 72.2999 141.798 67.1583C142.331 61.9833 142.597 55.0722 142.597 46.4249C142.597 37.6774 142.338 30.8665 141.821 25.9919C141.319 21.1174 140.521 16.8605 139.426 13.2213C138.331 9.54873 136.856 6.54389 135 4.20679V0C138.042 3.57243 140.407 7.42865 142.095 11.5687C143.783 15.6753 145.023 20.5331 145.814 26.1422C146.605 31.7178 147 38.4787 147 46.4249C147 54.371 146.605 61.1653 145.814 66.8078C145.023 72.4168 143.783 77.2913 142.095 81.4313C140.407 85.5714 138.042 89.4276 135 93Z" fill="black"/>
<path d="M73.403 46.4249C73.403 55.1055 73.6692 62.0334 74.2015 67.2084C74.7338 72.35 75.5703 76.6904 76.711 80.2294C77.8517 83.7684 79.2814 86.623 81 88.7932V93C77.9886 89.4943 75.6312 85.6548 73.9278 81.4814C72.2395 77.3414 70.9924 72.4669 70.1863 66.8578C69.3954 61.2154 69 54.4044 69 46.4249C69 38.4787 69.3954 31.7178 70.1863 26.1422C70.9772 20.5331 72.2167 15.6586 73.9049 11.5186C75.5932 7.37857 77.9582 3.53904 81 0V4.20679C79.1445 6.54389 77.6692 9.54873 76.5741 13.2213C75.4791 16.8605 74.673 21.1174 74.1559 25.9919C73.654 30.8665 73.403 37.6774 73.403 46.4249Z" fill="black"/>
<path d="M10.8047 61.7578V63H0.46875V61.7578L4.03125 61.125L14.7422 31.3125H19.1953L30.3281 61.125L34.3125 61.7578V63H21.0234V61.7578L25.2422 61.125L22.125 52.0547H9.75L6.58594 61.125L10.8047 61.7578ZM15.8438 34.6875L10.4531 49.9453H21.3984L15.8438 34.6875Z" fill="black"/>
<path d="M59.4141 50.6719V53.0625H37.0781V50.6719H59.4141ZM59.4141 41.0625V43.4531H37.0781V41.0625H59.4141Z" fill="black"/>
</svg>
